<svg width="25" height="12" viewBox="0 0 25 12" fill="none" xmlns="http://www.w3.org/2000/svg">
<path opacity="0.35" d="M0.833984 2.66935C0.833984 1.47273 1.80403 0.502686 3.00065 0.502686H19.6673C20.8639 0.502686 21.834 1.47274 21.834 2.66935V8.66935C21.834 9.86597 20.8639 10.836 19.6673 10.836H3.00065C1.80403 10.836 0.833984 9.86597 0.833984 8.66935V2.66935Z" stroke="#414141"/>
<path opacity="0.4" d="M23.334 3.66931V7.66931C24.1387 7.33053 24.662 6.54244 24.662 5.66931C24.662 4.79618 24.1387 4.00809 23.334 3.66931Z" fill="#414141"/>
<path d="M2.33398 3.33602C2.33398 2.59964 2.93094 2.00269 3.66732 2.00269H19.0007C19.737 2.00269 20.334 2.59964 20.334 3.33602V8.00268C20.334 8.73906 19.737 9.33602 19.0007 9.33602H3.66732C2.93094 9.33602 2.33398 8.73907 2.33398 8.00269V3.33602Z" fill="#414141"/>
</svg>
