<svg width="20" height="22" viewBox="0 0 20 22" fill="none" xmlns="http://www.w3.org/2000/svg">
<path d="M19.96 10.4131C19.96 15.925 15.4919 20.3931 9.98 20.3931C4.46869 20.3931 0 15.925 0 10.4131C0 4.9018 4.46869 0.433105 9.98 0.433105C15.4919 0.433105 19.96 4.9018 19.96 10.4131Z" fill="#FFCC4D"/>
<path d="M16.1188 8.82628C16.0836 8.74703 15.2388 6.89075 13.5023 6.89075C11.7663 6.89075 10.921 8.74703 10.8858 8.82628C10.8318 8.9478 10.867 9.08987 10.9709 9.17323C11.0736 9.25659 11.221 9.25953 11.329 9.18145C11.336 9.17617 12.0699 8.65192 13.5023 8.65192C14.9265 8.65192 15.6591 9.16912 15.6756 9.18086C15.7272 9.21961 15.7895 9.23898 15.8505 9.23898C15.9151 9.23898 15.9803 9.21726 16.0337 9.17499C16.1376 9.09163 16.1734 8.94839 16.1188 8.82628ZM9.0741 8.82628C9.03887 8.74703 8.1941 6.89075 6.45758 6.89075C4.72164 6.89075 3.87628 8.74703 3.84106 8.82628C3.78705 8.9478 3.82227 9.08987 3.92559 9.17323C4.02891 9.25659 4.17627 9.25953 4.2837 9.18145C4.29133 9.17617 5.02457 8.65192 6.45758 8.65192C7.88178 8.65192 8.61443 9.16912 8.63087 9.18086C8.68253 9.21961 8.74476 9.23898 8.80581 9.23898C8.87039 9.23898 8.93555 9.21726 8.98897 9.17499C9.09347 9.09163 9.12811 8.94839 9.0741 8.82628Z" fill="#664500"/>
<path d="M14.9717 16.5015C14.9717 16.5015 15.557 16.0782 15.0686 15.554C14.5802 15.0297 14.117 15.5845 14.117 15.5845L11.6825 17.8541C11.6419 17.7337 11.413 17.4179 11.3596 17.2981L14.7381 14.148C14.7381 14.148 15.324 13.7247 14.8344 13.1999C14.3459 12.6762 13.8822 13.2298 13.8822 13.2298L10.7044 16.1921C10.631 16.0993 10.4338 15.8751 10.3557 15.7823L14.0401 12.348C14.0401 12.348 14.6254 11.9242 14.1364 11.4005C13.6479 10.8763 13.1847 11.4305 13.1847 11.4305L9.49918 14.8636C9.41112 14.7785 9.1399 14.5061 9.05067 14.4256L12.4944 11.2156C12.4944 11.2156 13.0791 10.7917 12.5906 10.2681C12.1016 9.74384 11.639 10.298 11.639 10.298L7.99749 13.6918L7.70572 13.9642L7.57539 14.0857C7.57539 14.0857 7.25955 14.5225 6.93726 14.1908L8.01862 11.7498C8.01862 11.7498 8.35911 11.1193 7.7292 10.7782C7.09811 10.4372 6.75762 11.0677 6.75762 11.0677L5.7784 12.6868C5.38918 13.3284 4.98646 13.9654 4.51094 14.546C3.1701 16.1856 3.21296 18.6049 4.69763 20.1988C6.31732 21.9359 9.03951 22.0316 10.7766 20.4125L11.039 20.1671L14.9717 16.5015Z" fill="#F4900C"/>
</svg>
