<svg width="50" height="50" viewBox="0 0 50 50" fill="none" xmlns="http://www.w3.org/2000/svg">
<circle opacity="0.74" cx="25" cy="25" r="24.5" fill="#FFF1B1" stroke="#FFE773"/>
<g clip-path="url(#clip0_2201_423)">
<path d="M34.1633 17.1076C34.1572 16.8312 33.9314 16.6102 33.6549 16.6102H16.3449C16.0684 16.6102 15.8425 16.8312 15.8366 17.1076L15.3502 39.4805C15.344 39.7655 15.5733 40 15.8586 40H34.1413C34.4264 40 34.6559 39.7655 34.6497 39.4805L34.1633 17.1076Z" fill="#4861E9"/>
<path d="M24.0948 37.9661C20.9581 37.9661 18.4347 35.3871 18.5029 32.2512L18.8429 16.6101H16.3449C16.0683 16.6101 15.8425 16.8311 15.8365 17.1075L15.3502 39.4804C15.344 39.7655 15.5734 40 15.8586 40H34.1414C34.4265 40 34.6559 39.7655 34.6497 39.4804L34.6168 37.9661H24.0948Z" fill="#1720F5"/>
<path d="M21.4406 20.9322C22.1427 20.9322 22.7118 20.363 22.7118 19.661C22.7118 18.9589 22.1427 18.3898 21.4406 18.3898C20.7386 18.3898 20.1694 18.9589 20.1694 19.661C20.1694 20.363 20.7386 20.9322 21.4406 20.9322Z" fill="#1720F5"/>
<path d="M28.5593 20.9322C29.2613 20.9322 29.8305 20.363 29.8305 19.661C29.8305 18.9589 29.2613 18.3898 28.5593 18.3898C27.8572 18.3898 27.2881 18.9589 27.2881 19.661C27.2881 20.363 27.8572 20.9322 28.5593 20.9322Z" fill="#1720F5"/>
<path d="M20.4239 34.5339C20.261 34.5339 20.0986 34.4718 19.9745 34.3477C19.7263 34.0995 19.7263 33.6973 19.9745 33.4489L29.127 24.2964C29.3753 24.0482 29.7775 24.0482 30.0258 24.2964C30.2741 24.5447 30.2741 24.9469 30.0258 25.1952L20.8734 34.3477C20.7491 34.4718 20.5867 34.5339 20.4239 34.5339Z" fill="white"/>
<path d="M21.9493 28.9406C20.4775 28.9406 19.2798 27.7429 19.2798 26.2712C19.2798 24.7994 20.4775 23.6017 21.9493 23.6017C23.421 23.6017 24.6187 24.7994 24.6187 26.2712C24.6187 27.7429 23.4211 28.9406 21.9493 28.9406ZM21.9493 24.8729C21.1781 24.8729 20.551 25.5 20.551 26.2712C20.551 27.0423 21.1781 27.6694 21.9493 27.6694C22.7204 27.6694 23.3475 27.0423 23.3475 26.2712C23.3475 25.5 22.7204 24.8729 21.9493 24.8729Z" fill="white"/>
<path d="M28.0511 35.0424C26.5793 35.0424 25.3816 33.8447 25.3816 32.373C25.3816 30.9012 26.5793 29.7035 28.0511 29.7035C29.5228 29.7035 30.7205 30.9012 30.7205 32.373C30.7205 33.8447 29.5228 35.0424 28.0511 35.0424ZM28.0511 30.9746C27.2799 30.9746 26.6528 31.6018 26.6528 32.3729C26.6528 33.1441 27.2799 33.7712 28.0511 33.7712C28.8222 33.7712 29.4493 33.1441 29.4493 32.3729C29.4493 31.6018 28.8222 30.9746 28.0511 30.9746Z" fill="white"/>
<path d="M28.5595 20.1695C28.2784 20.1695 28.051 19.9421 28.051 19.661V14.0678C28.051 12.3855 26.6825 11.017 25.0002 11.017C23.3178 11.017 21.9493 12.3855 21.9493 14.0678V19.6611C21.9493 19.9421 21.7219 20.1695 21.4408 20.1695C21.1598 20.1695 20.9324 19.9421 20.9324 19.6611V14.0678C20.9324 11.8248 22.7572 10 25.0002 10C27.2432 10 29.068 11.8248 29.068 14.0678V19.6611C29.068 19.9421 28.8406 20.1695 28.5595 20.1695Z" fill="#2A2A2A"/>
<path d="M21.4406 20.1695C21.1598 20.1695 20.9321 19.9418 20.9321 19.661V18.6441C20.9321 18.3633 21.1598 18.1356 21.4406 18.1356C21.7214 18.1356 21.9491 18.3633 21.9491 18.6441V19.661C21.9491 19.9419 21.7214 20.1695 21.4406 20.1695Z" fill="#909FF4"/>
<path d="M28.5593 20.1695C28.2785 20.1695 28.0508 19.9418 28.0508 19.661V18.6441C28.0508 18.3633 28.2785 18.1356 28.5593 18.1356C28.84 18.1356 29.0677 18.3633 29.0677 18.6441V19.661C29.0677 19.9419 28.84 20.1695 28.5593 20.1695Z" fill="#909FF4"/>
</g>
<defs>
<clipPath id="clip0_2201_423">
<rect width="30" height="30" fill="white" transform="translate(10 10)"/>
</clipPath>
</defs>
</svg>
