<svg width="50" height="50" viewBox="0 0 50 50" fill="none" xmlns="http://www.w3.org/2000/svg">
<circle cx="25" cy="25" r="24.5" fill="white" stroke="#FF6969"/>
<path d="M30.3696 16.0001H20.7898C18.1458 16.0001 15.9999 18.1364 15.9999 20.7709V26.4996V27.4576C15.9999 30.092 18.1458 32.2283 20.7898 32.2283H22.2268C22.4854 32.2283 22.8303 32.4007 22.9932 32.6115L24.4301 34.5179C25.0624 35.3609 26.097 35.3609 26.7293 34.5179L28.1662 32.6115C28.3483 32.372 28.6357 32.2283 28.9326 32.2283H30.3696C33.0136 32.2283 35.1595 30.092 35.1595 27.4576V20.7709C35.1595 18.1364 33.0136 16.0001 30.3696 16.0001ZM21.7478 25.5799C21.2113 25.5799 20.7898 25.1488 20.7898 24.6219C20.7898 24.095 21.2209 23.664 21.7478 23.664C22.2747 23.664 22.7058 24.095 22.7058 24.6219C22.7058 25.1488 22.2843 25.5799 21.7478 25.5799ZM25.5797 25.5799C25.0432 25.5799 24.6217 25.1488 24.6217 24.6219C24.6217 24.095 25.0528 23.664 25.5797 23.664C26.1066 23.664 26.5377 24.095 26.5377 24.6219C26.5377 25.1488 26.1162 25.5799 25.5797 25.5799ZM29.4116 25.5799C28.8751 25.5799 28.4536 25.1488 28.4536 24.6219C28.4536 24.095 28.8847 23.664 29.4116 23.664C29.9385 23.664 30.3696 24.095 30.3696 24.6219C30.3696 25.1488 29.9481 25.5799 29.4116 25.5799Z" fill="#FF6969"/>
</svg>
