<svg width="20" height="20" viewBox="0 0 20 20" fill="none" xmlns="http://www.w3.org/2000/svg">
<path d="M10.7377 2.66506C10.7167 2.65456 8.63615 1.66656 6.98065 1.54056C5.24065 1.40506 3.49715 2.32856 3.47915 2.33856L3.24365 1.89706C3.31965 1.85656 5.13365 0.901057 7.01865 1.04156C8.76815 1.17556 10.8647 2.17206 10.9532 2.21406L10.7377 2.66506Z" fill="black"/>
<path d="M8.97828 3.64851L8.75928 3.19901L10.4743 2.36301L9.36628 0.840509L9.77078 0.546509L11.2293 2.55051L8.97828 3.64851Z" fill="black"/>
<path d="M1.5114 4.95704L1.2959 4.50604C1.3844 4.46404 3.4809 3.46754 5.2309 3.33354C7.1099 3.19654 8.9294 4.14854 9.0054 4.18904L8.7699 4.63054C8.7524 4.62104 7.0034 3.69704 5.2689 3.83254C3.6134 3.95854 1.5324 4.94704 1.5114 4.95704Z" fill="black"/>
<path d="M3.27103 5.9405L1.01953 4.8425L2.47803 2.8385L2.88253 3.1325L1.77453 4.655L3.48953 5.491L3.27103 5.9405Z" fill="black"/>
<path d="M12.6688 19.719C12.0323 19.719 11.3868 19.65 10.8028 19.52C9.80626 19.298 7.70976 17.6985 7.26626 17.239C6.86526 16.8235 5.79126 15.2285 5.63376 13.931C5.56476 13.366 5.99826 11.6825 6.52876 11.0835C6.63326 10.966 6.74276 10.887 6.85476 10.848C6.83223 10.7966 6.8094 10.7452 6.78626 10.694C6.44126 9.94305 5.93026 9.07554 5.47926 8.30954C4.71576 7.01254 4.43126 6.49454 4.47926 6.19954C4.55976 5.69954 4.96976 5.12254 5.51576 5.02154L5.61226 5.00204C5.75302 4.96811 5.89701 4.94934 6.04176 4.94604C6.51826 4.94604 6.95476 5.21804 7.41626 5.80154C7.81576 6.30704 8.46276 7.70254 9.00726 8.96504C8.98226 8.64704 8.99176 8.38154 9.05876 8.22654C9.32876 7.60004 10.0818 7.35354 10.3113 7.33905L10.3678 7.33754C10.5133 7.33754 11.2578 7.37404 11.6028 8.09804C11.6578 8.21404 11.7103 8.33904 11.7588 8.46554C11.8208 8.25054 11.9088 8.06304 12.0343 7.95604C12.4203 7.62804 12.9488 7.45804 13.3083 7.55904C13.6948 7.66754 14.0203 8.07654 14.1378 8.60304C14.1883 8.48904 14.2493 8.39654 14.3213 8.34254C14.6708 8.08054 15.2788 8.05254 15.6638 8.31954C16.1338 8.64554 17.2148 10.5985 17.4048 12.3065C17.5603 13.7105 17.7358 16.2195 17.1563 17.2535C16.5543 18.326 15.3228 19.159 14.4333 19.4785C14.0003 19.633 13.3738 19.719 12.6688 19.719ZM7.03376 11.329C6.70176 11.362 6.05126 13.222 6.12976 13.8695C6.27076 15.0335 7.27026 16.5225 7.62626 16.8915C8.04976 17.3305 10.0548 18.8405 10.9108 19.031C11.4603 19.1535 12.0673 19.2185 12.6683 19.2185C13.3078 19.2185 13.8888 19.141 14.2628 19.006C14.9353 18.7645 16.1433 18.033 16.7188 17.0065C17.0928 16.341 17.1613 14.647 16.9068 12.3605C16.7263 10.7315 15.6728 8.93355 15.3783 8.72855C15.1418 8.56505 14.7478 8.64505 14.6203 8.74104C14.5498 8.82154 14.4453 9.29254 14.4048 9.74104L14.2793 11.1245L13.9148 9.78405C13.9148 9.78405 13.7528 9.18904 13.6508 8.71754C13.5638 8.31904 13.3418 8.08604 13.1723 8.03904C12.9858 7.98604 12.6113 8.11954 12.3578 8.33554C12.2198 8.45304 12.1173 9.13204 12.1128 9.66704L12.0938 11.7455L11.6193 9.72155C11.6173 9.71255 11.4188 8.87004 11.1513 8.31154C10.9353 7.85854 10.4603 7.83554 10.3678 7.83554C10.2223 7.84554 9.68976 8.02455 9.51776 8.42305C9.39776 8.70255 9.66976 10.161 9.99026 11.3515L9.51626 11.5075C9.49976 11.464 7.75726 7.03655 7.02476 6.11004C6.55376 5.51404 6.23876 5.44504 6.04276 5.44504C5.93276 5.44504 5.82676 5.46704 5.71526 5.49054L5.60776 5.51204C5.32676 5.56404 5.03126 5.92254 4.97276 6.27904C4.97726 6.47004 5.49476 7.34904 5.91076 8.05554C6.36726 8.83154 6.88526 9.71104 7.24076 10.4845C7.33126 10.681 7.41526 10.8855 7.49276 11.0945L7.49376 11.098C8.03626 11.8455 8.30626 14.304 8.33576 14.5865L7.83926 14.644C7.83726 14.6265 7.60826 12.8755 7.05326 11.3475C7.04719 11.3409 7.04068 11.3348 7.03376 11.329Z" fill="black"/>
</svg>
