<svg width="17" height="11" viewBox="0 0 17 11" fill="none" xmlns="http://www.w3.org/2000/svg">
<path fill-rule="evenodd" clip-rule="evenodd" d="M16 0.335938H15C14.4477 0.335938 14 0.783653 14 1.33594V10.0026C14 10.5549 14.4477 11.0026 15 11.0026H16C16.5523 11.0026 17 10.5549 17 10.0026V1.33594C17 0.783653 16.5523 0.335938 16 0.335938ZM10.334 2.66931H11.334C11.8863 2.66931 12.334 3.11703 12.334 3.66931V10.0026C12.334 10.5549 11.8863 11.0026 11.334 11.0026H10.334C9.7817 11.0026 9.33398 10.5549 9.33398 10.0026V3.66931C9.33398 3.11703 9.7817 2.66931 10.334 2.66931ZM6.66602 5.00256H5.66602C5.11373 5.00256 4.66602 5.45028 4.66602 6.00256V10.0026C4.66602 10.5548 5.11373 11.0026 5.66602 11.0026H6.66602C7.2183 11.0026 7.66602 10.5548 7.66602 10.0026V6.00256C7.66602 5.45028 7.2183 5.00256 6.66602 5.00256ZM2 7.0026H1C0.447715 7.0026 0 7.45032 0 8.0026V10.0026C0 10.5549 0.447715 11.0026 1 11.0026H2C2.55228 11.0026 3 10.5549 3 10.0026V8.0026C3 7.45032 2.55228 7.0026 2 7.0026Z" fill="#141414"/>
</svg>
