<svg width="100" height="100" viewBox="0 0 100 100" fill="none" xmlns="http://www.w3.org/2000/svg">
<g clip-path="url(#clip0_140_1700)">
<path d="M81.1079 10.2529H57.3845C54.6347 10.2529 51.9974 11.3453 50.0528 13.2898L2.63271 60.7104C1.28291 62.06 1.28291 64.2484 2.63271 65.598L34.4036 97.3689C35.7534 98.7188 37.9417 98.7188 39.2913 97.3689L86.7114 49.9486C88.656 48.0043 89.7483 45.367 89.7483 42.617V18.8936C89.7485 14.1217 85.88 10.2529 81.1079 10.2529ZM79.5894 27.7439C77.5648 29.7686 74.2821 29.7686 72.2577 27.7439C70.2331 25.7193 70.2331 22.4369 72.2577 20.4123C74.2823 18.3877 77.5649 18.3877 79.5894 20.4123C81.614 22.4369 81.6142 25.7191 79.5894 27.7439Z" fill="#FF6969"/>
<path d="M7.81963 65.8973L55.2397 18.477C57.1843 16.5327 59.8216 15.4401 62.5714 15.4401H86.2946C87.3224 15.4401 88.2942 15.6504 89.2087 15.9797C88.0091 12.6489 84.8521 10.2532 81.1077 10.2532H57.3845C54.6347 10.2532 51.9974 11.3456 50.0528 13.2901L2.63271 60.7104C1.28291 62.06 1.28291 64.2485 2.63271 65.5981L7.81963 70.785C6.46963 69.4354 6.46963 67.2469 7.81963 65.8973Z" fill="#FF6969"/>
<path d="M100 6.81255C100.008 4.98657 99.3029 3.27231 98.0158 1.9852C96.7289 0.698289 95.0111 -0.0056175 93.1885 0.00102312C91.3678 0.00864031 89.6537 0.72407 88.3621 2.01548C87.8152 2.56235 86.8205 3.7436 86.2764 4.39927C85.7049 5.08774 85.7994 6.10923 86.4879 6.68052C87.1762 7.252 88.1977 7.15747 88.7691 6.46899C89.6215 5.44243 90.326 4.63403 90.6531 4.30669C91.3363 3.62368 92.2414 3.24516 93.202 3.24106C93.2072 3.24106 93.2121 3.24106 93.2174 3.24106C94.167 3.24106 95.057 3.60825 95.7246 4.27602C96.3959 4.94731 96.7637 5.84321 96.7596 6.79868C96.7555 7.75903 96.377 8.66411 95.6939 9.34751C95.0824 9.95903 92.9805 11.6264 89.9689 13.7301C88.1875 10.6844 84.8836 8.63266 81.1076 8.63266H57.3844C54.182 8.63266 51.1715 9.87973 48.9068 12.144L1.48691 59.5647C0.528125 60.5235 0 61.7983 0 63.1541C0 64.51 0.528125 65.785 1.48691 66.7436L33.2578 98.5145C34.2477 99.5042 35.5473 99.9989 36.8473 99.9989C38.1473 99.9989 39.4473 99.504 40.4367 98.5145L87.857 51.0944C90.1213 48.8299 91.3684 45.8194 91.3684 42.6168V18.8936C91.3684 18.1934 91.2975 17.5098 91.1631 16.8487C94.591 14.4899 97.1074 12.5166 97.9852 11.6389C99.277 10.3475 99.9924 8.63345 100 6.81255ZM88.1283 18.8936V42.6168C88.1283 44.9538 87.2182 47.1508 85.566 48.803L38.1457 96.2235C37.4301 96.9393 36.2648 96.9393 35.549 96.2235L3.77813 64.4526C3.43145 64.1059 3.24023 63.6448 3.24023 63.1541C3.24023 62.6635 3.43125 62.2026 3.77813 61.8559L51.1982 14.4358C52.8508 12.7834 55.0477 11.8735 57.3844 11.8735H81.1076C83.7717 11.8735 86.0939 13.3651 87.283 15.5569C85.3693 16.8241 83.2266 18.1715 80.9533 19.4965C80.8824 19.4188 80.81 19.3418 80.7348 19.2666C78.0816 16.6135 73.7648 16.6135 71.1117 19.2666C68.4586 21.9198 68.4586 26.2366 71.1117 28.8897C72.4383 30.2163 74.1809 30.8793 75.9232 30.8793C77.6656 30.8793 79.4082 30.2163 80.7348 28.8897C82.5057 27.1188 83.0926 24.6073 82.4996 22.3434C84.4768 21.1924 86.3754 20.0161 88.1275 18.878C88.1279 18.8832 88.1283 18.8885 88.1283 18.8936ZM74.4764 24.8061C74.7609 25.3719 75.332 25.6985 75.925 25.6985C76.1697 25.6985 76.4184 25.6428 76.652 25.5252C77.6016 25.0475 78.5479 24.5506 79.4848 24.0416C79.4941 24.9665 79.1484 25.8942 78.4441 26.5983C77.0543 27.9879 74.7934 27.9879 73.4035 26.5983C72.0139 25.2084 72.0139 22.9475 73.4035 21.5577C74.0984 20.8627 75.0111 20.5155 75.9238 20.5155C76.6465 20.5155 77.367 20.737 77.9816 21.1723C77.0646 21.6707 76.134 22.1588 75.1959 22.6309C74.3961 23.0329 74.074 24.0069 74.4764 24.8061Z" fill="black"/>
<path d="M48.2739 33.0004C47.3792 33.0004 46.6538 33.7256 46.6538 34.6205V68.8351C46.6538 69.7299 47.3792 70.4552 48.2739 70.4552C49.1687 70.4552 49.894 69.7299 49.894 68.8351V34.6205C49.894 33.7254 49.1687 33.0004 48.2739 33.0004Z" fill="black"/>
<path d="M31.2428 46.9164C28.5896 49.5695 28.5896 53.8863 31.2428 56.5395C32.5695 57.8662 34.3117 58.5293 36.0543 58.5291C37.7965 58.5291 39.5393 57.8656 40.8656 56.5395C42.151 55.2541 42.8588 53.5455 42.8588 51.7279C42.8588 49.9103 42.151 48.2018 40.8656 46.9166C38.2125 44.2631 33.8955 44.2633 31.2428 46.9164ZM38.5744 54.248C37.1846 55.6379 34.9236 55.6377 33.534 54.248C32.1443 52.8582 32.1443 50.5973 33.534 49.2074C34.2289 48.5125 35.1416 48.1652 36.0543 48.1652C36.967 48.1652 37.8797 48.5125 38.5746 49.2074C39.2479 49.8807 39.6186 50.7756 39.6186 51.7277C39.6184 52.6799 39.2477 53.5748 38.5744 54.248Z" fill="black"/>
<path d="M55.682 46.9164C53.0289 49.5696 53.0289 53.8864 55.682 56.5395C57.0085 57.866 58.7509 58.5291 60.4935 58.5291C62.2359 58.5291 63.9785 57.866 65.3048 56.5395C67.958 53.8864 67.958 49.5696 65.3048 46.9164C62.6517 44.2631 58.3345 44.2633 55.682 46.9164ZM63.0134 54.2481C61.6236 55.6379 59.3626 55.6377 57.973 54.2481C56.5833 52.8582 56.5833 50.5973 57.973 49.2074C58.6679 48.5125 59.5806 48.1653 60.4933 48.1653C61.406 48.1653 62.3187 48.5125 63.0136 49.2074C64.4033 50.5973 64.4033 52.8582 63.0134 54.2481Z" fill="black"/>
</g>
<defs>
<clipPath id="clip0_140_1700">
<rect width="100" height="100" fill="white"/>
</clipPath>
</defs>
</svg>
