<svg width="28" height="28" viewBox="0 0 28 28" fill="none" xmlns="http://www.w3.org/2000/svg">
<g clip-path="url(#clip0_43_1543)">
<path d="M0 21C0 21.8251 0.327777 22.6164 0.911223 23.1999C1.49467 23.7833 2.28599 24.1111 3.11111 24.1111H24.8889C25.714 24.1111 26.5053 23.7833 27.0888 23.1999C27.6722 22.6164 28 21.8251 28 21V17.1111H0V21Z" fill="#138808"/>
<path d="M28 10.8889V7.00003C28 6.17491 27.6722 5.38359 27.0888 4.80014C26.5053 4.21669 25.714 3.88892 24.8889 3.88892H3.11111C2.28599 3.88892 1.49467 4.21669 0.911223 4.80014C0.327777 5.38359 0 6.17491 0 7.00003L0 10.8889H28Z" fill="#FF6969"/>
<path d="M0 10.6299H28V17.3709H0V10.6299Z" fill="#F7F7F7"/>
<path d="M14 17.1111C15.7182 17.1111 17.1111 15.7182 17.1111 14C17.1111 12.2818 15.7182 10.8889 14 10.8889C12.2818 10.8889 10.8889 12.2818 10.8889 14C10.8889 15.7182 12.2818 17.1111 14 17.1111Z" fill="#000080"/>
<path d="M14 16.625C15.4497 16.625 16.625 15.4497 16.625 14C16.625 12.5503 15.4497 11.375 14 11.375C12.5503 11.375 11.375 12.5503 11.375 14C11.375 15.4497 12.5503 16.625 14 16.625Z" fill="#F7F7F7"/>
<path d="M14.0778 13.0278L14 13.5333L13.9222 13.0278L14 11.5111L14.0778 13.0278ZM13.356 11.5959L13.6733 13.0807L13.8794 13.5489L13.8234 13.041L13.356 11.5959ZM12.7556 11.8448L13.4462 13.1966L13.7667 13.5956L13.5816 13.1188L12.7556 11.8448ZM12.2399 12.2399L13.2572 13.3677L13.6702 13.6702L13.3677 13.2572L12.2399 12.2399ZM11.8448 12.7556L13.1188 13.5816L13.5956 13.7667L13.1966 13.4462L11.8448 12.7556ZM11.5959 13.356L13.041 13.8234L13.5489 13.8794L13.0807 13.6733L11.5959 13.356ZM11.5111 14L13.0278 14.0778L13.5333 14L13.0278 13.9222L11.5111 14ZM11.5959 14.644L13.0807 14.3267L13.5489 14.1206L13.041 14.1766L11.5959 14.644ZM11.8448 15.2444L13.1966 14.5538L13.5956 14.2333L13.1188 14.4184L11.8448 15.2444ZM12.2399 15.7601L13.3677 14.7428L13.6702 14.3298L13.2572 14.6323L12.2399 15.7601ZM12.7556 16.1552L13.5816 14.8812L13.7667 14.4044L13.4462 14.8034L12.7556 16.1552ZM13.356 16.4041L13.8234 14.959L13.8794 14.4511L13.6733 14.9193L13.356 16.4041ZM14 16.4889L14.0778 14.9722L14 14.4667L13.9222 14.9722L14 16.4889ZM14.644 16.4041L14.3267 14.9193L14.1206 14.4511L14.1766 14.959L14.644 16.4041ZM15.2444 16.1552L14.5538 14.8034L14.2333 14.4044L14.4184 14.8812L15.2444 16.1552ZM15.7601 15.7601L14.7428 14.6323L14.3298 14.3298L14.6323 14.7428L15.7601 15.7601ZM16.1552 15.2444L14.8812 14.4184L14.4044 14.2333L14.8034 14.5538L16.1552 15.2444ZM16.4041 14.644L14.959 14.1766L14.4511 14.1206L14.9193 14.3267L16.4041 14.644ZM16.4889 14L14.9722 13.9222L14.4667 14L14.9722 14.0778L16.4889 14ZM16.4041 13.356L14.9193 13.6733L14.4511 13.8794L14.959 13.8234L16.4041 13.356ZM16.1552 12.7556L14.8034 13.4462L14.4044 13.7667L14.8812 13.5816L16.1552 12.7556ZM15.7601 12.2399L14.6323 13.2572L14.3298 13.6702L14.7428 13.3677L15.7601 12.2399ZM15.2444 11.8448L14.4184 13.1188L14.2333 13.5956L14.5538 13.1966L15.2444 11.8448ZM14.644 11.5959L14.1766 13.041L14.1206 13.5489L14.3267 13.0807L14.644 11.5959Z" fill="#6666B3"/>
<path d="M13.6578 11.557C13.7437 11.557 13.8134 11.4873 13.8134 11.4014C13.8134 11.3155 13.7437 11.2458 13.6578 11.2458C13.5719 11.2458 13.5023 11.3155 13.5023 11.4014C13.5023 11.4873 13.5719 11.557 13.6578 11.557Z" fill="#000080"/>
<path d="M12.9967 11.7343C13.0826 11.7343 13.1522 11.6647 13.1522 11.5788C13.1522 11.4929 13.0826 11.4232 12.9967 11.4232C12.9108 11.4232 12.8411 11.4929 12.8411 11.5788C12.8411 11.6647 12.9108 11.7343 12.9967 11.7343Z" fill="#000080"/>
<path d="M12.404 12.0758C12.4899 12.0758 12.5596 12.0061 12.5596 11.9202C12.5596 11.8343 12.4899 11.7646 12.404 11.7646C12.3181 11.7646 12.2485 11.8343 12.2485 11.9202C12.2485 12.0061 12.3181 12.0758 12.404 12.0758Z" fill="#000080"/>
<path d="M11.9203 12.5595C12.0062 12.5595 12.0758 12.4899 12.0758 12.404C12.0758 12.3181 12.0062 12.2484 11.9203 12.2484C11.8344 12.2484 11.7647 12.3181 11.7647 12.404C11.7647 12.4899 11.8344 12.5595 11.9203 12.5595Z" fill="#000080"/>
<path d="M11.5788 13.1522C11.6647 13.1522 11.7343 13.0825 11.7343 12.9966C11.7343 12.9107 11.6647 12.8411 11.5788 12.8411C11.4929 12.8411 11.4232 12.9107 11.4232 12.9966C11.4232 13.0825 11.4929 13.1522 11.5788 13.1522Z" fill="#000080"/>
<path d="M11.4015 13.8133C11.4874 13.8133 11.557 13.7437 11.557 13.6578C11.557 13.5718 11.4874 13.5022 11.4015 13.5022C11.3156 13.5022 11.2459 13.5718 11.2459 13.6578C11.2459 13.7437 11.3156 13.8133 11.4015 13.8133Z" fill="#000080"/>
<path d="M11.4015 14.4978C11.4874 14.4978 11.557 14.4281 11.557 14.3422C11.557 14.2563 11.4874 14.1866 11.4015 14.1866C11.3156 14.1866 11.2459 14.2563 11.2459 14.3422C11.2459 14.4281 11.3156 14.4978 11.4015 14.4978Z" fill="#000080"/>
<path d="M11.5788 15.1589C11.6647 15.1589 11.7343 15.0892 11.7343 15.0033C11.7343 14.9174 11.6647 14.8478 11.5788 14.8478C11.4929 14.8478 11.4232 14.9174 11.4232 15.0033C11.4232 15.0892 11.4929 15.1589 11.5788 15.1589Z" fill="#000080"/>
<path d="M11.9203 15.7515C12.0062 15.7515 12.0758 15.6819 12.0758 15.596C12.0758 15.5101 12.0062 15.4404 11.9203 15.4404C11.8344 15.4404 11.7647 15.5101 11.7647 15.596C11.7647 15.6819 11.8344 15.7515 11.9203 15.7515Z" fill="#000080"/>
<path d="M12.404 16.2353C12.4899 16.2353 12.5596 16.1657 12.5596 16.0797C12.5596 15.9938 12.4899 15.9242 12.404 15.9242C12.3181 15.9242 12.2485 15.9938 12.2485 16.0797C12.2485 16.1657 12.3181 16.2353 12.404 16.2353Z" fill="#000080"/>
<path d="M12.9967 16.5767C13.0826 16.5767 13.1522 16.5071 13.1522 16.4212C13.1522 16.3353 13.0826 16.2656 12.9967 16.2656C12.9108 16.2656 12.8411 16.3353 12.8411 16.4212C12.8411 16.5071 12.9108 16.5767 12.9967 16.5767Z" fill="#000080"/>
<path d="M13.6578 16.7541C13.7437 16.7541 13.8134 16.6845 13.8134 16.5985C13.8134 16.5126 13.7437 16.443 13.6578 16.443C13.5719 16.443 13.5023 16.5126 13.5023 16.5985C13.5023 16.6845 13.5719 16.7541 13.6578 16.7541Z" fill="#000080"/>
<path d="M14.3423 16.7541C14.4282 16.7541 14.4978 16.6845 14.4978 16.5985C14.4978 16.5126 14.4282 16.443 14.3423 16.443C14.2564 16.443 14.1867 16.5126 14.1867 16.5985C14.1867 16.6845 14.2564 16.7541 14.3423 16.7541Z" fill="#000080"/>
<path d="M15.0033 16.5767C15.0892 16.5767 15.1589 16.5071 15.1589 16.4212C15.1589 16.3353 15.0892 16.2656 15.0033 16.2656C14.9174 16.2656 14.8478 16.3353 14.8478 16.4212C14.8478 16.5071 14.9174 16.5767 15.0033 16.5767Z" fill="#000080"/>
<path d="M15.596 16.2353C15.682 16.2353 15.7516 16.1657 15.7516 16.0797C15.7516 15.9938 15.682 15.9242 15.596 15.9242C15.5101 15.9242 15.4405 15.9938 15.4405 16.0797C15.4405 16.1657 15.5101 16.2353 15.596 16.2353Z" fill="#000080"/>
<path d="M16.0798 15.7515C16.1657 15.7515 16.2354 15.6819 16.2354 15.596C16.2354 15.5101 16.1657 15.4404 16.0798 15.4404C15.9939 15.4404 15.9243 15.5101 15.9243 15.596C15.9243 15.6819 15.9939 15.7515 16.0798 15.7515Z" fill="#000080"/>
<path d="M16.4212 15.1589C16.5072 15.1589 16.5768 15.0892 16.5768 15.0033C16.5768 14.9174 16.5072 14.8478 16.4212 14.8478C16.3353 14.8478 16.2657 14.9174 16.2657 15.0033C16.2657 15.0892 16.3353 15.1589 16.4212 15.1589Z" fill="#000080"/>
<path d="M16.5985 14.4978C16.6845 14.4978 16.7541 14.4281 16.7541 14.3422C16.7541 14.2563 16.6845 14.1866 16.5985 14.1866C16.5126 14.1866 16.443 14.2563 16.443 14.3422C16.443 14.4281 16.5126 14.4978 16.5985 14.4978Z" fill="#000080"/>
<path d="M16.5985 13.8133C16.6845 13.8133 16.7541 13.7437 16.7541 13.6578C16.7541 13.5718 16.6845 13.5022 16.5985 13.5022C16.5126 13.5022 16.443 13.5718 16.443 13.6578C16.443 13.7437 16.5126 13.8133 16.5985 13.8133Z" fill="#000080"/>
<path d="M16.4212 13.1522C16.5072 13.1522 16.5768 13.0825 16.5768 12.9966C16.5768 12.9107 16.5072 12.8411 16.4212 12.8411C16.3353 12.8411 16.2657 12.9107 16.2657 12.9966C16.2657 13.0825 16.3353 13.1522 16.4212 13.1522Z" fill="#000080"/>
<path d="M16.0798 12.5595C16.1657 12.5595 16.2354 12.4899 16.2354 12.404C16.2354 12.3181 16.1657 12.2484 16.0798 12.2484C15.9939 12.2484 15.9243 12.3181 15.9243 12.404C15.9243 12.4899 15.9939 12.5595 16.0798 12.5595Z" fill="#000080"/>
<path d="M15.596 12.0758C15.682 12.0758 15.7516 12.0061 15.7516 11.9202C15.7516 11.8343 15.682 11.7646 15.596 11.7646C15.5101 11.7646 15.4405 11.8343 15.4405 11.9202C15.4405 12.0061 15.5101 12.0758 15.596 12.0758Z" fill="#000080"/>
<path d="M15.0033 11.7343C15.0892 11.7343 15.1589 11.6647 15.1589 11.5788C15.1589 11.4929 15.0892 11.4232 15.0033 11.4232C14.9174 11.4232 14.8478 11.4929 14.8478 11.5788C14.8478 11.6647 14.9174 11.7343 15.0033 11.7343Z" fill="#000080"/>
<path d="M14.3423 11.557C14.4282 11.557 14.4978 11.4873 14.4978 11.4014C14.4978 11.3155 14.4282 11.2458 14.3423 11.2458C14.2564 11.2458 14.1867 11.3155 14.1867 11.4014C14.1867 11.4873 14.2564 11.557 14.3423 11.557Z" fill="#000080"/>
<path d="M14 14.6999C14.3866 14.6999 14.7 14.3865 14.7 13.9999C14.7 13.6133 14.3866 13.2999 14 13.2999C13.6134 13.2999 13.3 13.6133 13.3 13.9999C13.3 14.3865 13.6134 14.6999 14 14.6999Z" fill="#000080"/>
</g>
<defs>
<clipPath id="clip0_43_1543">
<rect width="28" height="28" fill="white"/>
</clipPath>
</defs>
</svg>
