<svg width="24" height="25" viewBox="0 0 24 25" fill="none" xmlns="http://www.w3.org/2000/svg">
<path d="M18 21.3005H6.00005C5.33731 21.3005 4.80005 20.7633 4.80005 20.1005C4.80005 18.1156 6.03149 16.339 7.89014 15.6424L8.25916 15.5041C10.6712 14.6001 13.3289 14.6001 15.7409 15.5041L16.11 15.6424C17.9686 16.339 19.2 18.1156 19.2 20.1005C19.2 20.7633 18.6628 21.3005 18 21.3005Z" fill="#C2CCDE" fill-opacity="0.25"/>
<path d="M10.1705 11.9607C11.3189 12.5506 12.6812 12.5506 13.8296 11.9607C14.8984 11.4117 15.6641 10.4118 15.9155 9.23686L15.9826 8.92329C16.2397 7.72179 15.9651 6.46781 15.2294 5.48374L15.1216 5.33963C14.3858 4.35542 13.2289 3.77588 12 3.77588C10.7712 3.77588 9.61428 4.35543 8.87846 5.33964L8.77072 5.48374C8.035 6.46781 7.76038 7.72179 8.01748 8.92329L8.08457 9.23686C8.33598 10.4118 9.10172 11.4117 10.1705 11.9607Z" fill="#C2CCDE" fill-opacity="0.25"/>
<path d="M18 21.3005H6.00005C5.33731 21.3005 4.80005 20.7633 4.80005 20.1005C4.80005 18.1156 6.03149 16.339 7.89014 15.6424L8.25916 15.5041C10.6712 14.6001 13.3289 14.6001 15.7409 15.5041L16.11 15.6424C17.9686 16.339 19.2 18.1156 19.2 20.1005C19.2 20.7633 18.6628 21.3005 18 21.3005Z" stroke="#414141" stroke-linecap="round" stroke-linejoin="round"/>
<path d="M10.1705 11.9607C11.3189 12.5506 12.6812 12.5506 13.8296 11.9607C14.8984 11.4117 15.6641 10.4118 15.9155 9.23686L15.9826 8.92329C16.2397 7.72179 15.9651 6.46781 15.2294 5.48374L15.1216 5.33963C14.3858 4.35542 13.2289 3.77588 12 3.77588C10.7712 3.77588 9.61428 4.35543 8.87846 5.33964L8.77072 5.48374C8.035 6.46781 7.76038 7.72179 8.01748 8.92329L8.08457 9.23686C8.33598 10.4118 9.10172 11.4117 10.1705 11.9607Z" stroke="#414141" stroke-linecap="round" stroke-linejoin="round"/>
</svg>
