<svg width="393" height="141" viewBox="0 0 393 141" fill="none" xmlns="http://www.w3.org/2000/svg">
<path d="M0 99.4151C0 76.5359 17.9086 57.9886 40 57.9886H353C375.091 57.9886 393 76.5359 393 99.4151V140.538H0V99.4151Z" fill="white"/>
<path d="M192.71 1.6481C195.185 0.168081 198.235 0.168079 200.71 1.6481L234.894 22.088C237.369 23.5681 238.894 26.3033 238.894 29.2633V70.1432C238.894 73.1032 237.369 75.8384 234.894 77.3184L200.71 97.7584C198.235 99.2384 195.185 99.2384 192.71 97.7584L158.526 77.3184C156.051 75.8384 154.526 73.1032 154.526 70.1432V29.2633C154.526 26.3033 156.051 23.5681 158.526 22.088L192.71 1.6481Z" fill="#F54748"/>
</svg>
