<svg width="40" height="41" viewBox="0 0 40 41" fill="none" xmlns="http://www.w3.org/2000/svg">
<path d="M30 12.3005V11.3005C30 9.64368 28.6569 8.30054 27 8.30054H9C7.34315 8.30054 6 9.64368 6 11.3005V29.3005C6 30.9574 7.34315 32.3005 9 32.3005H31C32.6569 32.3005 34 30.9574 34 29.3005V15.3005C34 13.6437 32.6569 12.3005 31 12.3005H30ZM30 12.3005H11.25M28 23.8005C26.8954 23.8005 26 22.9051 26 21.8005C26 20.696 26.8954 19.8005 28 19.8005C29.1046 19.8005 30 20.696 30 21.8005C30 22.9051 29.1046 23.8005 28 23.8005Z" stroke="white" stroke-width="2" stroke-linecap="round" stroke-linejoin="round"/>
</svg>
