<svg width="16" height="11" viewBox="0 0 16 11" fill="none" xmlns="http://www.w3.org/2000/svg">
<path fill-rule="evenodd" clip-rule="evenodd" d="M7.66395 2.27733C9.87984 2.27742 12.011 3.12886 13.617 4.65566C13.7379 4.77354 13.9312 4.77205 14.0503 4.65233L15.2063 3.48566C15.2666 3.42494 15.3002 3.34269 15.2997 3.25711C15.2992 3.17153 15.2646 3.08967 15.2036 3.02966C10.9885 -1.00989 4.33871 -1.00989 0.123616 3.02966C0.0625577 3.08963 0.0279138 3.17146 0.0273507 3.25704C0.0267877 3.34262 0.060352 3.42489 0.120616 3.48566L1.27695 4.65233C1.39598 4.77223 1.58942 4.77372 1.71028 4.65566C3.31643 3.12876 5.44784 2.27732 7.66395 2.27733ZM7.66473 6.07302C8.88222 6.07295 10.0563 6.52548 10.9587 7.34269C11.0808 7.45867 11.2731 7.45615 11.3921 7.33702L12.5467 6.17035C12.6075 6.10916 12.6413 6.02614 12.6404 5.93988C12.6395 5.85361 12.6041 5.7713 12.5421 5.71135C9.79387 3.15497 5.53793 3.15497 2.78973 5.71135C2.72765 5.7713 2.69224 5.85365 2.69142 5.93995C2.69061 6.02624 2.72446 6.10925 2.7854 6.17035L3.93973 7.33702C4.05872 7.45615 4.251 7.45867 4.37306 7.34269C5.27494 6.52602 6.44805 6.07352 7.66473 6.07302ZM9.97779 8.62683C9.97956 8.71334 9.94555 8.79674 9.8838 8.85735L7.88646 10.873C7.82791 10.9323 7.74809 10.9656 7.6648 10.9656C7.58151 10.9656 7.50168 10.9323 7.44313 10.873L5.44546 8.85735C5.38375 8.7967 5.3498 8.71327 5.35163 8.62676C5.35346 8.54026 5.39091 8.45834 5.45513 8.40035C6.7307 7.32147 8.59889 7.32147 9.87446 8.40035C9.93864 8.45838 9.97602 8.54033 9.97779 8.62683Z" fill="#414141"/>
</svg>
